<svg width="34" height="32" viewBox="0 0 34 32" fill="none" xmlns="http://www.w3.org/2000/svg">
<path fill-rule="evenodd" clip-rule="evenodd" d="M27.5709 22.4C29.9324 22.4 31.3529 23.1574 32.129 23.7929C33.0849 24.5755 33.6331 25.623 33.6331 26.6667C33.6331 27.7103 33.0849 28.7578 32.129 29.5405C31.3529 30.1759 29.9324 30.9333 27.5709 30.9333C27.0087 30.9391 26.4494 30.8535 25.9166 30.68C25.5897 31.0063 25.2073 31.2759 24.7862 31.477C24.1073 31.7977 23.366 31.9759 22.6109 32C21.8558 31.9759 21.1144 31.7977 20.4355 31.477C19.6955 31.131 19.0876 30.5673 18.6988 29.8667H11.2012C10.6812 30.5357 9.86748 30.9304 9.00243 30.9333H4.25489C2.82093 30.9267 1.62928 29.862 1.50808 28.4793L0.568163 17.1092C0.555897 16.9608 0.60826 16.8142 0.712595 16.7049C0.81693 16.5955 0.963744 16.5333 1.11755 16.5333H8.8331V6.93333C8.83319 6.86935 8.84523 6.80591 8.86865 6.74607H8.86816L10.4864 2.56993V0.533333C10.4864 0.238781 10.7332 0 11.0375 0H20.9575C21.2619 0 21.5086 0.238781 21.5086 0.533333V2.56993L23.1269 6.74627H23.1264C23.1498 6.80604 23.1619 6.86942 23.162 6.93333V21.9135C23.9007 22.0357 24.6184 22.3985 25.2251 22.9582C25.8811 22.5877 26.6676 22.4 27.5709 22.4ZM18.9223 6.4L20.1623 3.2H11.4195L10.1795 6.4H18.9223ZM20.9575 4.1856L21.8156 6.4H20.0995L20.9575 4.1856ZM18.7531 10.6667V7.46667H9.93532V10.6667H18.7531ZM22.0598 7.46667V21.9133C21.2626 22.0451 20.4902 22.4574 19.8553 23.0945V7.46667H22.0598ZM20.4064 2.13333V1.06667H11.5887V2.13333H20.4064ZM9.93532 11.7333H18.7531V24.7609C18.638 25.034 18.5421 25.3144 18.466 25.6H11.9872L12.6891 17.1092C12.7014 16.9608 12.6491 16.8142 12.5447 16.7049C12.4404 16.5955 12.2936 16.5333 12.1398 16.5333H9.93532V11.7333ZM11.3664 19.7333L11.5428 17.6H1.71454L1.8909 19.7333H11.3664ZM9.00243 29.8667H4.25489C3.39452 29.8627 2.67953 29.2239 2.60686 28.3943L1.97908 20.8H11.2782L10.6505 28.3943C10.5778 29.2239 9.86279 29.8627 9.00243 29.8667ZM11.7495 28.4793C11.7403 28.587 11.7242 28.6941 11.7013 28.8H18.3097C18.2363 28.4489 18.2002 28.0915 18.202 27.7333C18.2014 27.3769 18.2219 27.0208 18.2633 26.6667H11.8991L11.7495 28.4793ZM24.3241 30.5079C23.7898 30.7633 23.2063 30.9082 22.6109 30.9333C22.4758 30.9333 19.3042 30.8969 19.3042 27.7333C19.3042 24.2365 21.3324 22.9333 22.6109 22.9333C23.8893 22.9333 25.9175 24.2365 25.9175 27.7333C25.9175 29.05 25.3814 29.9835 24.3241 30.5079ZM26.5799 29.7586C26.9046 29.8326 27.2373 29.8689 27.5709 29.8667C31.1843 29.8667 32.5309 27.9039 32.5309 26.6667C32.5309 25.4295 31.1843 23.4667 27.5709 23.4667C26.9449 23.4667 26.4006 23.5771 25.9451 23.7947C26.4954 24.6025 27.0197 25.8628 27.0197 27.7333C27.0197 28.5605 26.8481 29.2253 26.5799 29.7586Z" fill="black"/>
</svg>
