<svg width="29" height="26" viewBox="0 0 29 26" fill="none" xmlns="http://www.w3.org/2000/svg">
<path fill-rule="evenodd" clip-rule="evenodd" d="M27.4155 12.05C27.6723 11.3573 27.6999 10.6849 27.4944 10.0444C27.2632 9.32358 26.7785 8.79418 26.3672 8.4523C26.8175 8.00697 27.0541 7.3884 27.0082 6.76489C27.7649 6.40789 28.2746 5.64997 28.2746 4.80666C28.2746 3.96341 27.7649 3.20549 27.0082 2.84844C27.0682 2.03352 26.647 1.22611 25.8948 0.804458C25.1426 0.382855 24.2119 0.432505 23.5151 0.890216C22.8184 0.432452 21.8875 0.382855 21.1354 0.804458C20.3833 1.22611 19.9622 2.03363 20.0221 2.84844C19.9532 2.88098 19.8872 2.91788 19.8226 2.95677C18.4136 0.846445 16.871 0.565446 16.038 0.597986C14.8262 0.645537 13.6753 1.3969 13.1741 2.46772C12.8402 3.18119 12.2917 3.47993 11.8903 3.60489C11.2694 3.79824 10.5591 3.7234 9.99062 3.40472C9.37231 3.05811 8.63785 2.69414 7.8776 2.62244C7.14043 2.55296 6.48007 2.76845 5.90938 3.26159C5.70231 3.2152 5.52745 3.2481 5.41583 3.28495C4.8259 3.47998 4.47645 4.25044 4.19873 5.34321C3.97889 4.51433 3.75895 3.83388 3.57972 3.32861C3.49691 3.09517 3.4368 2.90224 3.38859 2.7472C3.26016 2.33447 3.1587 2.00844 2.78774 1.90688C2.41721 1.80543 2.15624 2.03085 1.82614 2.31625C1.7862 2.35079 1.74301 2.3881 1.6962 2.4282L0.782873 3.20974C0.610175 3.35748 0.552717 3.59523 0.639796 3.80218C1.35399 5.4984 2.18327 10.1934 2.46515 11.8698H2.20732C1.32086 11.8698 0.599635 12.5701 0.599635 13.4309V15.5572C0.599635 15.9546 0.753577 16.3176 1.00627 16.5934C0.753523 16.8693 0.599635 17.2322 0.599635 17.6296V19.756C0.599635 20.1534 0.753577 20.5163 1.00627 20.7922C0.753523 21.068 0.599635 21.4309 0.599635 21.8283V23.9547C0.599635 24.8154 1.32086 25.5156 2.20732 25.5156H26.6668C27.5533 25.5156 28.2745 24.8154 28.2745 23.9547V21.8283C28.2745 21.4309 28.1206 21.068 27.8679 20.7921C28.1206 20.5163 28.2745 20.1533 28.2745 19.7559V17.6296C28.2745 17.2322 28.1206 16.8692 27.8679 16.5934C28.1206 16.3175 28.2745 15.9546 28.2745 15.5572V13.4308C28.2746 12.8324 27.9258 12.3119 27.4155 12.05ZM26.4622 10.3566C26.6113 10.8212 26.5653 11.3291 26.3271 11.8698H23.5225L23.5854 11.7645C24.2226 10.6929 24.5904 9.83309 24.7166 9.099L24.7305 9.09936C24.7455 9.09976 24.7605 9.10016 24.7754 9.10016C24.9725 9.10016 25.1689 9.0747 25.3594 9.02468C25.6582 9.22045 26.244 9.67648 26.4622 10.3566ZM21.1058 3.45615C21.0294 3.58468 20.9005 3.67585 20.751 3.70692C20.2212 3.81708 19.8367 4.27967 19.8367 4.80677C19.8367 5.023 19.9012 5.23215 20.0187 5.41102C20.2934 5.31612 20.5745 5.26994 20.8666 5.26994C21.1377 5.26994 21.4163 5.31119 21.7104 5.39538C21.8641 5.00295 21.9685 4.52839 21.9205 4.16531C21.8824 3.87786 22.0916 3.61486 22.3877 3.57791C22.6836 3.54081 22.9546 3.74408 22.9926 4.03164C23.0688 4.60696 22.9239 5.2701 22.7052 5.81036C22.7583 5.8385 22.8118 5.86752 22.8662 5.89801C22.9186 5.9274 22.9718 5.95784 23.0252 5.98928C23.3977 5.5354 23.9166 5.08215 24.4676 4.85852C24.7431 4.74678 25.0597 4.873 25.1747 5.14041C25.2899 5.40781 25.1599 5.71526 24.8844 5.827C24.5372 5.96792 24.1668 6.29217 23.8938 6.61699C24.287 6.98144 24.6085 7.44382 24.7221 8.0489C24.941 8.05872 25.1607 8.00844 25.3543 7.8999C25.8244 7.63628 26.0447 7.08168 25.8781 6.58114C25.831 6.43986 25.8479 6.28587 25.9243 6.15728C26.0007 6.0287 26.1297 5.93759 26.2792 5.90652C26.8089 5.79635 27.1934 5.33386 27.1934 4.80672C27.1934 4.27957 26.8089 3.81703 26.2792 3.70687C26.1297 3.6758 26.0007 3.58468 25.9243 3.4561C25.8479 3.32751 25.8311 3.17353 25.8781 3.03229C26.0447 2.53175 25.8244 1.97716 25.3543 1.71358C24.8842 1.45001 24.2793 1.54207 23.9162 1.93244C23.8137 2.0426 23.6679 2.10548 23.5151 2.10548C23.3621 2.10548 23.2164 2.0426 23.1139 1.93244C22.7509 1.54212 22.146 1.45017 21.6759 1.71364C21.2058 1.97721 20.9855 2.53181 21.1521 3.03234C21.1991 3.17358 21.1823 3.32756 21.1058 3.45615ZM20.0499 7.93638C20.2367 7.93638 20.4184 7.84222 20.5185 7.67385C20.6678 7.42282 20.5792 7.10183 20.3207 6.95693L19.8518 6.69409C19.9431 6.6257 20.0305 6.5686 20.114 6.5222C20.1285 6.51543 20.1425 6.50777 20.1564 6.49969C20.4315 6.35562 20.665 6.31961 20.8666 6.31961C21.2688 6.31961 21.7325 6.47449 22.3256 6.80703C23.1846 7.28857 23.5861 7.73342 23.6682 8.29463C23.734 8.74389 23.6023 9.32998 23.2689 10.0688L22.4409 9.60463C22.1823 9.45956 21.8518 9.54569 21.7026 9.79672C21.5533 10.0478 21.6419 10.3687 21.9004 10.5136L22.7838 11.0088C22.7404 11.0846 22.6957 11.1614 22.6493 11.2396C22.5227 11.4524 22.3951 11.6634 22.2684 11.8697H16.5196C16.7365 11.4202 16.9759 10.9533 17.2349 10.472L17.846 10.8145C17.9311 10.8622 18.024 10.8849 18.1157 10.8849C18.3025 10.8849 18.4842 10.7908 18.5843 10.6223C18.7336 10.3713 18.645 10.0503 18.3865 9.90541L17.7472 9.54706C17.8963 9.28542 18.0506 9.02017 18.2105 8.75124C18.5276 8.21801 18.8157 7.80013 19.0786 7.47263L19.7802 7.86595C19.8653 7.91371 19.9582 7.93638 20.0499 7.93638ZM12.7896 6.63877C10.4449 6.63877 8.53726 8.49098 8.53726 10.7677C8.53726 11.1432 8.58888 11.5125 8.69071 11.8698V11.8699H15.3305C15.6777 11.1196 16.0856 10.3221 16.5502 9.48554L16.5515 9.48292L16.5521 9.48219C16.6065 9.38409 16.6618 9.28542 16.7179 9.18628C16.0634 7.65365 14.5139 6.63877 12.7896 6.63877ZM8.87027 5.17594C8.2724 4.86072 7.7049 4.81312 7.24718 4.86366C7.26005 4.83007 7.27313 4.79737 7.28659 4.76552C7.37253 4.5613 7.31783 4.3267 7.14967 4.17838L6.8266 3.89345C7.45691 3.48276 8.21181 3.61969 9.4502 4.31389C9.97441 4.60775 10.5816 4.75917 11.1866 4.75917C11.5376 4.75917 11.8878 4.7082 12.2205 4.6046C13.0819 4.33636 13.7701 3.73174 14.1585 2.90213C14.4294 2.32329 15.1468 1.68361 16.0818 1.64693C17.1362 1.60515 18.1824 2.34502 19.05 3.73652C18.8628 4.05573 18.7558 4.42206 18.7558 4.80677C18.7558 5.21194 18.8729 5.604 19.0865 5.94252C18.911 6.0837 18.7361 6.24839 18.5607 6.43734C18.5546 6.44363 18.5486 6.44993 18.5428 6.45655C18.1546 6.87825 17.7634 7.41952 17.3558 8.09152C16.8257 7.24008 16.0567 6.56109 15.1526 6.12653C15.2527 5.77887 15.4409 5.25251 15.7597 4.77486C15.9221 4.53165 15.8507 4.20662 15.6001 4.04895C15.3496 3.89119 15.015 3.96062 14.8525 4.20389C14.4881 4.74972 14.2648 5.33743 14.1372 5.75825C13.7038 5.64803 13.2519 5.58899 12.7896 5.58899C9.84879 5.58899 7.45626 7.91208 7.45626 10.7675C7.45626 11.1409 7.49777 11.5094 7.57831 11.8697H6.7192C6.67752 10.7405 6.61807 7.92756 6.95562 5.99899C7.23399 5.8999 7.76971 5.79005 8.3544 6.0984C8.43639 6.14159 8.52472 6.16211 8.6119 6.16211C8.80368 6.16211 8.98941 6.06276 9.0874 5.88762C9.22983 5.63292 9.13265 5.31429 8.87027 5.17594ZM4.90095 7.25902L4.90017 7.26327C4.85087 7.53036 4.8073 7.76617 4.76693 7.95307C4.96822 9.1212 5.12578 10.4372 5.18837 11.8697H5.63658C5.58377 10.4527 5.51528 6.70075 6.15619 4.72033L5.72344 4.33867C5.64182 4.44872 5.49069 4.71797 5.31383 5.34583C5.14053 5.96106 5.00779 6.68022 4.90095 7.25902ZM1.77728 3.75798L2.40667 3.21955C2.44775 3.34903 2.49661 3.49845 2.55769 3.6706C3.07232 5.12136 3.93457 8.0658 4.10624 11.8698H3.56085C3.32021 10.4173 2.53028 5.85188 1.77728 3.75798ZM26.6669 24.4658C26.9573 24.4658 27.1936 24.2364 27.1936 23.9545H27.1935V21.8281C27.1935 21.5462 26.9572 21.3168 26.6669 21.3168H2.20737C1.917 21.3168 1.68074 21.5462 1.68074 21.8281V23.9545C1.68074 24.2364 1.917 24.4658 2.20737 24.4658H26.6669ZM27.1936 19.7559C27.1936 20.0379 26.9573 20.2672 26.6669 20.2672H2.20737C1.917 20.2672 1.68074 20.0378 1.68074 19.7559V17.6295C1.68074 17.3476 1.917 17.1182 2.20737 17.1182H26.6669C26.9572 17.1182 27.1935 17.3476 27.1935 17.6295V19.7559H27.1936ZM26.6669 16.0685C26.9573 16.0685 27.1936 15.8391 27.1936 15.5572H27.1935V13.4308C27.1935 13.1491 26.9576 12.9198 26.6675 12.9195L26.6664 12.9196L26.6647 12.9195H2.20737C1.917 12.9195 1.68074 13.1489 1.68074 13.4308V15.5572C1.68074 15.8391 1.917 16.0685 2.20737 16.0685H26.6669Z" fill="black"/>
<path d="M20.3298 10.4461L20.3351 10.4491C20.4152 10.4942 20.5027 10.5156 20.5889 10.5156C20.7653 10.5156 20.9369 10.426 21.0312 10.2657C21.1716 10.0272 21.0876 9.72242 20.8437 9.5851L20.8383 9.58211C20.5943 9.44484 20.2826 9.52698 20.1422 9.76553C20.0018 10.0041 20.0858 10.3088 20.3298 10.4461Z" fill="black"/>
<path d="M16.4757 4.51562C16.5443 4.51562 16.6141 4.50157 16.6808 4.47199L16.6995 4.46382C16.9529 4.35428 17.0683 4.06256 16.9575 3.81221C16.8466 3.5618 16.5512 3.44771 16.2982 3.55725L16.2701 3.56952C16.0179 3.68159 15.9054 3.97449 16.0188 4.22366C16.1022 4.40697 16.2846 4.51562 16.4757 4.51562Z" fill="black"/>
<path d="M3.16194 14.5156C2.87967 14.5156 2.64941 14.7402 2.64941 15.0156C2.64941 15.291 2.87967 15.5156 3.16194 15.5156C3.44421 15.5156 3.67441 15.291 3.67441 15.0156C3.67441 14.7402 3.44421 14.5156 3.16194 14.5156Z" fill="black"/>
<path d="M3.16194 18.5156C2.87967 18.5156 2.64941 18.7402 2.64941 19.0156C2.64941 19.291 2.87967 19.5156 3.16194 19.5156C3.44421 19.5156 3.67441 19.291 3.67441 19.0156C3.67441 18.7402 3.44421 18.5156 3.16194 18.5156Z" fill="black"/>
<path d="M3.16194 22.5156C2.87967 22.5156 2.64941 22.7402 2.64941 23.0156C2.64941 23.291 2.87967 23.5156 3.16194 23.5156C3.44421 23.5156 3.67441 23.291 3.67441 23.0156C3.67441 22.7403 3.44416 22.5156 3.16194 22.5156Z" fill="black"/>
<path d="M25.7117 14.5156C25.4294 14.5156 25.1992 14.7402 25.1992 15.0156C25.1992 15.291 25.4294 15.5156 25.7117 15.5156C25.994 15.5156 26.2242 15.291 26.2242 15.0156C26.2242 14.7402 25.994 14.5156 25.7117 14.5156Z" fill="black"/>
<path d="M25.7117 18.5156C25.4294 18.5156 25.1992 18.7402 25.1992 19.0156C25.1992 19.291 25.4294 19.5156 25.7117 19.5156C25.994 19.5156 26.2242 19.291 26.2242 19.0156C26.2242 18.7402 25.994 18.5156 25.7117 18.5156Z" fill="black"/>
<path d="M25.7117 22.5156C25.4294 22.5156 25.1992 22.7402 25.1992 23.0156C25.1992 23.291 25.4294 23.5156 25.7117 23.5156C25.994 23.5156 26.2242 23.291 26.2242 23.0156C26.2242 22.7403 25.994 22.5156 25.7117 22.5156Z" fill="black"/>
</svg>
