<svg width="22" height="29" viewBox="0 0 22 29" fill="none" xmlns="http://www.w3.org/2000/svg">
<path fill-rule="evenodd" clip-rule="evenodd" d="M16.5137 4.30917V5.24261C19.1086 5.5253 21.1333 7.68921 21.1333 10.3086V27.2819C21.1333 28.2293 20.3475 29.0001 19.3817 29H3.2517C2.2858 29 1.5 28.2293 1.5 27.2819V10.3086C1.5 7.68915 3.52477 5.52525 6.11961 5.24255V4.30911H5.15145C4.83253 4.30911 4.574 4.05548 4.574 3.74271V2.15456C4.574 0.966574 5.55936 0 6.77063 0H15.8627C17.074 0 18.0593 0.966574 18.0593 2.15456V3.74276C18.0593 4.05553 17.8007 4.30917 17.4819 4.30917H16.5137ZM5.7289 2.15456V3.1763H16.9044V2.15456C16.9044 1.59121 16.4371 1.13281 15.8627 1.13281H6.77063C6.19624 1.13281 5.7289 1.59121 5.7289 2.15456ZM15.3588 4.30911V5.21095H7.27445V4.30911H15.3588ZM18.1863 25.8091H19.9784V24.7897H2.6549V27.2819C2.6549 27.6047 2.92267 27.8672 3.2517 27.8672H19.3816C19.7107 27.8672 19.9784 27.6047 19.9784 27.2819V26.942H18.1863C17.8674 26.942 17.6089 26.6884 17.6089 26.3756C17.6089 26.0628 17.8674 25.8091 18.1863 25.8091ZM19.9784 23.6569H2.65484V12.2438H19.9784V23.6569ZM2.65484 11.111H19.9784V10.3086C19.9784 8.12239 18.1651 6.34376 15.9363 6.34376H6.697C4.86775 6.34376 3.31914 7.54228 2.82248 9.18056H4.48253C4.8014 9.18056 5.05999 9.43419 5.05999 9.74696C5.05999 10.0598 4.8014 10.3134 4.48253 10.3134H2.65484V11.111Z" fill="black"/>
<path fill-rule="evenodd" clip-rule="evenodd" d="M14.0904 16.2366C15.629 16.4185 16.5121 17.276 16.8354 18.0849C17.1842 18.9578 16.9652 19.8908 16.2905 20.4065C16.0828 20.5652 15.6515 20.8126 14.9843 20.8127C14.682 20.8127 14.3312 20.7619 13.9308 20.6291C13.8065 20.8222 13.624 20.9838 13.3995 21.0885L11.97 21.8402C11.7719 21.9446 11.5458 22 11.3169 22C11.0656 22 10.8221 21.9351 10.6112 21.8119L9.17691 21.0576C8.97789 20.9535 8.81639 20.804 8.70345 20.6284C8.30231 20.7616 7.95086 20.8126 7.64814 20.8127C6.98074 20.8127 6.54961 20.5652 6.34185 20.4065C5.66709 19.8908 5.4481 18.9578 5.79696 18.0849C6.1202 17.276 7.00336 16.4185 8.54189 16.2366C8.71029 14.9781 9.88976 14 11.3162 14C12.7425 14 13.922 14.9781 14.0904 16.2366ZM7.15668 19.522C7.42903 19.7303 7.92595 19.6993 8.52047 19.4476V17.4099C7.76578 17.5437 7.21094 17.9223 6.98815 18.4797C6.82349 18.8918 6.89283 19.3203 7.15668 19.522ZM9.78804 16.5463C9.78804 15.7789 10.4736 15.1546 11.3162 15.1546C12.1588 15.1546 12.8442 15.7789 12.8442 16.5463V16.7063H9.78804V16.5463ZM12.8442 17.8608H9.78804V18.6991H12.8442V17.8608ZM12.8443 20.0278C12.8442 20.0492 12.8267 20.0586 12.8214 20.061C12.8079 20.0669 12.7947 20.0733 12.7818 20.0801L11.3356 20.8406C11.3216 20.848 11.3062 20.8465 11.2945 20.8394C11.2831 20.8326 11.2717 20.826 11.2599 20.8198L9.80965 20.0571C9.79279 20.0483 9.79095 20.0333 9.79095 20.0272C9.79095 20.0091 9.78994 19.9912 9.78816 19.9736V19.8536H12.8443V20.0278ZM14.1119 19.4476C14.7063 19.6992 15.2032 19.7302 15.4756 19.522C15.7396 19.3203 15.8088 18.8918 15.6442 18.4797C15.4215 17.9223 14.8666 17.5437 14.1119 17.4099V19.4476Z" fill="black"/>
<path d="M5.1223 9H5.11025C4.82827 9 4.59961 9.2239 4.59961 9.5C4.59961 9.7761 4.82827 10 5.11025 10H5.1223C5.40428 10 5.63294 9.7761 5.63294 9.5C5.63294 9.2239 5.40428 9 5.1223 9Z" fill="black"/>
<path d="M16.4895 26H16.4774C16.1955 26 15.9668 26.2239 15.9668 26.5C15.9668 26.7761 16.1955 27 16.4774 27H16.4895C16.7715 27 17.0001 26.7761 17.0001 26.5C17.0001 26.2239 16.7715 26 16.4895 26Z" fill="black"/>
</svg>
