<svg width="23" height="25" viewBox="0 0 23 25" fill="none" xmlns="http://www.w3.org/2000/svg">
<path fill-rule="evenodd" clip-rule="evenodd" d="M21.8344 21.8699L21.8358 21.8733C22.2094 22.7284 22.6743 23.7926 21.6142 24.5799C21.3014 24.8123 20.9206 24.9301 20.4825 24.9301C19.9578 24.9301 19.4201 24.7655 18.9001 24.6063C18.7525 24.561 18.613 24.5184 18.4736 24.4792C18.2372 24.4126 17.9728 24.3803 17.6655 24.3803C17.1173 24.3803 16.4695 24.4828 15.7193 24.6015C14.5973 24.7791 13.201 25 11.4164 25C9.63219 25 8.236 24.7791 7.11415 24.6016L7.11359 24.6016L7.11279 24.6014C6.36287 24.4828 5.71523 24.3803 5.16729 24.3803C4.85987 24.3803 4.59554 24.4127 4.35917 24.4792C4.21977 24.5184 4.08032 24.5611 3.93271 24.6063L3.93213 24.6065C3.41228 24.7656 2.87478 24.9301 2.3502 24.9301C1.91222 24.9301 1.53148 24.8123 1.21859 24.58C0.158508 23.7927 0.623408 22.7285 0.996956 21.8735L0.996985 21.8734L0.99809 21.8709C1.08165 21.6795 1.16801 21.4818 1.23915 21.289C1.7414 19.9275 1.57576 18.0296 1.40041 16.0203L1.4004 16.0202L1.40034 16.0195C1.3009 14.8798 1.19807 13.7013 1.19807 12.5C1.19807 11.2988 1.30089 10.1203 1.40032 8.98068L1.4004 8.97978L1.40041 8.97968C1.57577 6.97039 1.7414 5.07253 1.23915 3.71104C1.16772 3.5175 1.08101 3.319 0.997131 3.12697L0.997037 3.12676L0.997033 3.12675C0.623429 2.27157 0.158484 1.20732 1.21859 0.42002C1.53143 0.187695 1.91211 0.0699219 2.35009 0.0699219C2.87488 0.0699219 3.41252 0.234521 3.93245 0.39375L3.94118 0.396419C4.08567 0.440599 4.22242 0.482414 4.35912 0.52085C4.5956 0.587353 4.85992 0.619678 5.16729 0.619678C5.71548 0.619678 6.36333 0.517236 7.11349 0.398486L7.11354 0.398478C8.23553 0.22094 9.63182 0 11.4164 0C13.2005 0 14.5967 0.220871 15.7186 0.398346L15.7192 0.398438C16.4694 0.517139 17.1173 0.619629 17.6655 0.619629C17.9729 0.619629 18.2372 0.587305 18.4736 0.52085C18.613 0.481641 18.7526 0.438916 18.9002 0.393701C19.4202 0.234473 19.9579 0.069873 20.4826 0.069873C20.9206 0.069873 21.3013 0.187646 21.6142 0.419971C22.6743 1.20732 22.2094 2.27158 21.8358 3.12676L21.8347 3.12914C21.7511 3.32049 21.6648 3.51823 21.5936 3.71099C21.0914 5.07252 21.257 6.97036 21.4323 8.97968L21.4323 8.97983L21.4324 8.98045C21.5318 10.1202 21.6347 11.2987 21.6347 12.5C21.6347 13.7012 21.5319 14.8795 21.4324 16.019L21.4323 16.0201L21.4323 16.0202C21.257 18.0295 21.0914 19.9274 21.5936 21.2889C21.6647 21.4814 21.7509 21.6788 21.8344 21.8699ZM20.6014 12.5001C20.6014 11.3388 20.5004 10.1804 20.4026 9.06021L20.4025 9.05974C20.218 6.94448 20.0437 4.94652 20.618 3.3896C20.6987 3.1708 20.7908 2.95997 20.8799 2.75607L20.8807 2.75415C21.299 1.79668 21.3622 1.47495 20.9758 1.18794C20.8459 1.09146 20.6892 1.04653 20.4827 1.04653C20.1212 1.04653 19.6828 1.18071 19.2188 1.3228C19.0718 1.36782 18.9198 1.41436 18.7684 1.45693C18.435 1.55068 18.0741 1.59634 17.6655 1.59634C17.0318 1.59634 16.3452 1.4877 15.5502 1.36193L15.5486 1.36167C14.4643 1.19009 13.1149 0.976562 11.4164 0.976562C9.7183 0.976562 8.36926 1.18994 7.28527 1.36139L7.28414 1.36157L7.28233 1.36186C6.48748 1.48762 5.80092 1.59624 5.16729 1.59624C4.75861 1.59624 4.39781 1.55063 4.0643 1.45679C3.91297 1.41426 3.76097 1.36772 3.61397 1.32271C3.14995 1.18062 2.71166 1.04644 2.35009 1.04644C2.14363 1.04644 1.98698 1.09131 1.85703 1.18784C1.47062 1.4748 1.53381 1.79653 1.95215 2.75396C2.04154 2.9585 2.13392 3.17002 2.21483 3.38945C2.58094 4.38203 2.64263 5.554 2.59159 6.82119H4.17012C4.45542 6.82119 4.68679 7.03984 4.68679 7.30947C4.68679 7.5791 4.45542 7.79775 4.17012 7.79775H2.53449C2.50416 8.21201 2.46743 8.63354 2.43023 9.05996C2.33242 10.1802 2.23136 11.3386 2.23136 12.5C2.23136 13.6613 2.33242 14.8196 2.43023 15.9398C2.61484 18.0552 2.78916 20.0533 2.21483 21.6104C2.13458 21.8281 2.04295 22.0379 1.9543 22.241L1.9521 22.246C1.53381 23.2033 1.47062 23.525 1.85703 23.812C1.98698 23.9084 2.14368 23.9534 2.3502 23.9534C2.71176 23.9534 3.15014 23.8192 3.61421 23.6771L3.61423 23.6771C3.76117 23.6321 3.91307 23.5856 4.06436 23.5431C4.39781 23.4493 4.75866 23.4037 5.16729 23.4037C5.80097 23.4037 6.48764 23.5123 7.28257 23.6381L7.28419 23.6383C8.36848 23.8099 9.71787 24.0234 11.4164 24.0234C13.1148 24.0234 14.4641 23.81 15.5482 23.6384L15.5486 23.6384C16.3442 23.5125 17.0313 23.4037 17.6654 23.4037C18.074 23.4037 18.4349 23.4493 18.7684 23.5432C18.9196 23.5857 19.0716 23.6322 19.2186 23.6772C19.6826 23.8193 20.1209 23.9535 20.4825 23.9535C20.689 23.9535 20.8458 23.9085 20.9757 23.812C21.3621 23.525 21.2989 23.2033 20.8807 22.2461L20.8804 22.2454C20.7911 22.041 20.6988 21.8297 20.618 21.6105C20.2519 20.6179 20.1902 19.4459 20.2413 18.1787H18.6627C18.3774 18.1787 18.146 17.96 18.146 17.6904C18.146 17.4208 18.3774 17.2021 18.6627 17.2021H20.2984C20.3287 16.7878 20.3654 16.3663 20.4026 15.9399C20.5004 14.8197 20.6014 13.6614 20.6014 12.5001Z" fill="black"/>
<path fill-rule="evenodd" clip-rule="evenodd" d="M15.0331 7.89365C15.0331 8.96746 14.9637 9.70091 14.7976 10.256C14.9433 10.3476 15.0331 10.5157 15.0331 10.6976C15.0331 11.7715 14.9637 12.5049 14.7976 13.06C14.9433 13.1516 15.0331 13.3197 15.0331 13.5016C15.0331 15.0415 14.8906 15.882 14.5245 16.4993C14.1408 17.1464 13.5458 17.4841 12.7223 17.9514L12.7221 17.9515C12.4726 18.0931 12.1961 18.2502 11.8912 18.4344V20.4886C11.8912 20.771 11.6786 21 11.4165 21C11.1544 21 10.9419 20.771 10.9419 20.4886V18.4344C10.6368 18.2503 10.3603 18.0932 10.1108 17.9515C9.28724 17.4842 8.69221 17.1464 8.30845 16.4993C7.94244 15.882 7.7998 15.0415 7.7998 13.5016C7.7998 13.3197 7.88966 13.1516 8.03538 13.06C7.86929 12.5049 7.7998 11.7715 7.7998 10.6976C7.7998 10.5157 7.88966 10.3476 8.03538 10.256C7.86929 9.70091 7.7998 8.96746 7.7998 7.89365C7.7998 7.71097 7.89027 7.54209 8.03713 7.45075C8.18399 7.35935 8.36493 7.35935 8.51179 7.45075C8.91192 7.69966 9.26574 7.90045 9.57802 8.07768L9.58016 8.07889C9.6937 8.14333 9.80249 8.20522 9.90743 8.26587C9.89899 8.17494 9.89462 8.08314 9.89462 7.99072C9.89462 7.10809 10.2898 6.2791 10.9418 5.76102V5.51144C10.9418 5.22902 11.1543 5 11.4164 5C11.6785 5 11.8911 5.22902 11.8911 5.51144V5.76102C12.543 6.2791 12.9382 7.10809 12.9382 7.99072C12.9382 8.08314 12.9339 8.17499 12.9254 8.26587C13.0304 8.20527 13.1392 8.14338 13.2527 8.07889L13.2548 8.07767C13.5671 7.90045 13.9209 7.69965 14.3211 7.45075C14.4679 7.35935 14.6489 7.35935 14.7957 7.45075C14.9426 7.54209 15.033 7.71091 15.0331 7.89365ZM13.7212 8.96908L13.6951 8.98388C12.3673 9.73748 11.985 9.95448 11.9075 11.6509C12.0377 11.5759 12.1616 11.5056 12.2796 11.4386L12.2797 11.4385C13.6075 10.685 13.9897 10.468 14.0673 8.77158C13.9466 8.8411 13.8313 8.90654 13.7212 8.96908ZM14.0673 11.5757C13.9897 13.272 13.6075 13.489 12.2798 14.2425L12.2796 14.2427C12.1616 14.3096 12.0377 14.3799 11.9075 14.4549C11.985 12.7585 12.3672 12.5416 13.695 11.7881L13.695 11.7881L13.6997 11.7854C13.8164 11.7191 13.9387 11.6497 14.0673 11.5757ZM8.76555 14.3796C8.84306 16.076 9.2253 16.293 10.5532 17.0466L10.5791 17.0613L10.5796 17.0616C10.6896 17.124 10.8048 17.1894 10.9253 17.2589C10.8478 15.5625 10.4655 15.3456 9.13773 14.592L9.12586 14.5852C9.01138 14.5203 8.89144 14.4522 8.76555 14.3796ZM10.5532 14.2426C9.2253 13.489 8.84306 13.272 8.76555 11.5756C8.89584 11.6507 9.01968 11.721 9.13782 11.788C10.4656 12.5416 10.8478 12.7585 10.9253 14.4549C10.7995 14.3823 10.6795 14.3142 10.5651 14.2493L10.5646 14.2491L10.5646 14.249L10.5532 14.2426ZM8.76555 8.77163C8.84306 10.4681 9.2253 10.685 10.5532 11.4386L10.5646 11.4451C10.6791 11.5101 10.7993 11.5782 10.9253 11.6509C10.8478 9.95443 10.4655 9.73748 9.13768 8.98388L9.11312 8.96994L9.11304 8.96989C9.00242 8.90712 8.88672 8.84146 8.76555 8.77163ZM11.4164 9.32183C11.0579 8.99313 10.8439 8.50635 10.8439 7.99072C10.8439 7.47509 11.0579 6.98831 11.4164 6.65961C11.775 6.98831 11.9889 7.47509 11.9889 7.99072C11.9889 8.50635 11.7749 8.99313 11.4164 9.32183ZM11.9075 17.2589C12.0377 17.1839 12.1616 17.1136 12.2796 17.0466L12.2797 17.0465C13.6075 16.2929 13.9897 16.076 14.0673 14.3796C13.9468 14.449 13.8318 14.5143 13.7219 14.5767L13.6951 14.592C12.3673 15.3456 11.985 15.5625 11.9075 17.2589Z" fill="black"/>
<path d="M12.4493 2.75427C12.1639 2.75427 11.9326 2.97556 11.9326 3.24844V3.2601C11.9326 3.53303 12.1639 3.75427 12.4493 3.75427C12.7346 3.75427 12.966 3.53298 12.966 3.2601V3.24844C12.966 2.97556 12.7346 2.75427 12.4493 2.75427Z" fill="black"/>
<path d="M5.22289 5.75427H5.21084C4.92881 5.75427 4.7002 5.97817 4.7002 6.25427C4.7002 6.53037 4.92881 6.75427 5.21084 6.75427H5.22289C5.50486 6.75427 5.73353 6.53037 5.73353 6.25427C5.73353 5.97817 5.50491 5.75427 5.22289 5.75427Z" fill="black"/>
<path d="M17.6223 16.7543H17.6103C17.3283 16.7543 17.0996 16.9782 17.0996 17.2543C17.0996 17.5304 17.3283 17.7543 17.6103 17.7543H17.6223C17.9043 17.7543 18.1329 17.5304 18.1329 17.2543C18.1329 16.9781 17.9043 16.7543 17.6223 16.7543Z" fill="black"/>
</svg>
