<svg width="26" height="30" viewBox="0 0 26 30" fill="none" xmlns="http://www.w3.org/2000/svg">
<path fill-rule="evenodd" clip-rule="evenodd" d="M23.6681 17.5248C22.136 19.0263 19.6767 20.0188 18.7671 20.3517V21.4185L19.4845 23.527C20.5573 23.3413 21.7865 23.716 22.7056 24.6168C24.0982 25.9816 24.2601 28.0435 23.0666 29.2132C22.5433 29.726 21.8381 30 21.0563 30C20.9554 30 20.8534 29.9954 20.7502 29.9862C19.882 29.9089 19.039 29.5088 18.3765 28.8595C18.2907 28.7749 18.209 28.6875 18.1316 28.5973C17.5726 29.4482 16.6829 29.9996 15.6827 29.9996C15.2362 29.9986 14.7971 29.8884 14.405 29.6791C14.0237 29.8902 13.593 30.0007 13.1551 29.9996H7.03282C6.55984 29.9992 6.09625 29.8702 5.69358 29.627C5.15482 29.8745 4.56672 30.0018 3.9717 29.9996C2.00251 29.9996 0.400391 28.6538 0.400391 26.9997C0.400391 25.3455 2.00251 23.9997 3.9717 23.9997C4.14225 23.9999 4.31264 24.0103 4.48189 24.0309V9.94113C4.48072 8.86473 5.1839 7.90887 6.22634 7.56984L7.27261 7.22803C7.461 7.16588 7.5957 7.00254 7.6182 6.80898L7.93808 3.9867C7.70692 3.93423 7.54318 3.7325 7.54301 3.49996V0.499994C7.54301 0.223855 7.77143 0 8.05319 0H12.1347C12.4165 0 12.6449 0.223855 12.6449 0.499994V3.49996C12.6447 3.73475 12.4778 3.9378 12.2438 3.98801L12.5698 6.8641C12.5924 7.05779 12.7273 7.22116 12.9159 7.28322L13.9618 7.6249C15.0042 7.964 15.7073 8.91988 15.706 9.99625V22.8591L17.7467 21.2591V14.9998C17.7467 14.7237 17.9752 14.4998 18.2569 14.4998C18.5387 14.4998 18.7671 14.7237 18.7671 14.9998V17.5654C19.2687 16.6008 19.948 15.5144 20.7824 14.6967C21.5349 13.9586 22.3786 13.4692 23.2893 13.2417C23.8134 13.1106 24.3692 13.26 24.7516 13.6348C25.1341 14.0096 25.2865 14.5543 25.1527 15.0679C24.9206 15.9604 24.4213 16.7873 23.6681 17.5248ZM23.5414 14.2109C22.8111 14.3933 22.1252 14.7946 21.5038 15.4036C20.4299 16.456 19.6121 18.0703 19.1542 19.1204C20.2256 18.6716 21.8729 17.8702 22.9471 16.8178C23.5686 16.2087 23.9781 15.5369 24.1642 14.8209C24.2108 14.6492 24.1596 14.4662 24.0303 14.3418C23.936 14.2485 23.8081 14.1955 23.6742 14.194C23.6294 14.1942 23.5847 14.1998 23.5414 14.2109ZM8.56338 0.999987H11.6245V2.99996H8.56338V0.999987ZM7.59581 8.17659L6.54878 8.51864C5.92338 8.72196 5.50151 9.29538 5.50226 9.94113V11.4999H14.6856V9.99625C14.6863 9.35066 14.2646 8.77737 13.6394 8.57402L12.5926 8.23208C12.0272 8.04581 11.6229 7.55571 11.5556 6.97491L11.2183 3.99995H8.9633L8.63232 6.91948C8.56506 7.50015 8.16099 7.99021 7.59581 8.17659ZM1.93095 27.4997C1.64918 27.4997 1.42076 27.2758 1.42076 26.9997C1.42076 26.7235 1.64918 26.4997 1.93095 26.4997C2.21272 26.4997 2.44114 26.7235 2.44114 26.9997C2.44082 27.2757 2.21259 27.4993 1.93095 27.4997ZM3.46225 26.9997C3.46225 27.7107 2.95288 28.324 2.24248 28.4684C2.74671 28.8209 3.35236 29.007 3.9717 28.9996C5.37828 28.9996 6.52263 28.1025 6.52263 26.9997C6.52263 25.8969 5.37828 24.9997 3.9717 24.9997C3.35236 24.9923 2.74671 25.1784 2.24248 25.5309C2.95288 25.6753 3.46225 26.2886 3.46225 26.9997ZM7.03282 28.9996C6.91219 28.9993 6.79204 28.9849 6.67486 28.9568C7.21515 28.4309 7.54301 27.7471 7.54301 26.9997C7.54301 25.8054 6.70758 24.7721 5.50226 24.2898V12.4998H14.6856V23.1913C13.4859 23.6654 12.6216 24.9689 12.6216 26.4997C12.6216 27.4577 12.9602 28.3267 13.5075 28.9593C13.392 28.986 13.2737 28.9995 13.1551 28.9996H7.03282ZM13.642 26.4997C13.642 27.8782 14.5574 28.9996 15.6827 28.9996C16.808 28.9996 17.7235 27.8782 17.7235 26.4997C17.7235 25.1212 16.808 23.9997 15.6827 23.9997C14.5574 23.9997 13.642 25.1212 13.642 26.4997ZM20.2403 24.4864C20.8712 24.5426 21.4906 24.8399 21.9843 25.3239C22.9792 26.2989 23.141 27.7262 22.3453 28.506C21.9724 28.8714 21.4388 29.0435 20.8428 28.9903C20.2118 28.9341 19.5922 28.6364 19.0982 28.1522C18.9081 27.9665 18.7435 27.7574 18.6084 27.5302C18.8126 26.7693 18.7858 25.9665 18.5314 25.2203C18.5915 25.1305 18.6607 25.0469 18.7378 24.9707C19.1104 24.6053 19.6439 24.4336 20.2403 24.4864ZM16.8324 23.2569C17.3101 23.4848 17.7212 23.8275 18.0273 24.253C18.1777 24.1076 18.3453 23.9803 18.5266 23.874L18.0042 22.3382L16.8324 23.2569Z" fill="black"/>
<ellipse cx="9.18366" cy="17.5" rx="0.516667" ry="0.5" fill="black"/>
<ellipse cx="7.11725" cy="15.5" rx="0.516667" ry="0.5" fill="black"/>
<ellipse cx="9.18366" cy="13.5" rx="0.516667" ry="0.5" fill="black"/>
</svg>
