<svg width="24" height="28" viewBox="0 0 24 28" fill="none" xmlns="http://www.w3.org/2000/svg">
<path fill-rule="evenodd" clip-rule="evenodd" d="M22.8138 24.4257L22.8153 24.4295C23.2068 25.353 23.6939 26.5024 22.5832 27.3527C22.2556 27.6037 21.8567 27.7309 21.3978 27.7309C20.848 27.7309 20.2847 27.5531 19.7399 27.3811C19.5852 27.3323 19.4392 27.2862 19.2932 27.2438C19.0454 27.172 18.7685 27.1371 18.4466 27.1371C17.8723 27.1371 17.1936 27.2478 16.4077 27.376C15.2323 27.5677 13.7694 27.8064 11.8999 27.8064C10.0305 27.8064 8.56753 27.5677 7.3921 27.3759L7.39034 27.3757C6.60516 27.2476 5.92699 27.1371 5.35318 27.1371C5.03118 27.1371 4.75426 27.172 4.50657 27.2438C4.36065 27.2861 4.21456 27.3322 4.05992 27.381L4.05981 27.381C3.515 27.553 2.95168 27.7308 2.40194 27.7308C1.94311 27.7308 1.54424 27.6035 1.21645 27.3526C0.105908 26.5024 0.592971 25.353 0.984358 24.4295L0.984404 24.4294L0.985122 24.4277C1.0728 24.2208 1.16344 24.0069 1.23804 23.7984C1.76421 22.328 1.59069 20.2783 1.40699 18.1083L1.40698 18.1082L1.40692 18.1075C1.30274 16.8767 1.19501 15.6038 1.19501 14.3064C1.19501 13.009 1.30272 11.7363 1.40689 10.5055L1.40698 10.5045L1.40699 10.5044C1.59069 8.33431 1.7642 6.28464 1.23804 4.81423C1.16344 4.60579 1.07278 4.3919 0.985094 4.185L0.984404 4.18337C0.592956 3.25978 0.10581 2.11033 1.21645 1.26004C1.54419 1.00913 1.94305 0.881882 2.40194 0.881882C2.95177 0.881882 3.51518 1.0597 4.05997 1.23167C4.21456 1.28045 4.36065 1.32654 4.50657 1.36888C4.75432 1.44071 5.03123 1.47562 5.35318 1.47562C5.92742 1.47562 6.60612 1.36493 7.39205 1.23673C8.56747 1.04499 10.0303 0.806366 11.8999 0.806366C13.7693 0.806366 15.2322 1.04499 16.4076 1.23684C17.1936 1.36503 17.8723 1.47572 18.4466 1.47572C18.7686 1.47572 19.0455 1.44081 19.2932 1.36899C19.4381 1.32693 19.5832 1.28117 19.7367 1.23276L19.7398 1.23177C20.2846 1.05975 20.848 0.881934 21.3978 0.881934C21.8566 0.881934 22.2555 1.00913 22.5832 1.26009C23.6939 2.11036 23.2068 3.25977 22.8154 4.18335L22.8153 4.18342L22.8142 4.18612C22.7267 4.39268 22.6362 4.60615 22.5617 4.81428C22.0356 6.28447 22.2091 8.33373 22.3927 10.5034L22.3928 10.5045L22.3929 10.5055C22.497 11.7363 22.6047 13.009 22.6047 14.3064C22.6047 15.6037 22.497 16.8764 22.3929 18.1072L22.3928 18.1082L22.3928 18.1083C22.2091 20.2783 22.0355 22.328 22.5617 23.7985C22.6361 24.0062 22.7263 24.2194 22.8138 24.4257ZM21.5223 14.3064C21.5223 13.0521 21.4164 11.8011 21.314 10.5912C21.1206 8.30657 20.9379 6.14862 21.5396 4.46703C21.6241 4.23086 21.7206 4.00317 21.8139 3.78298L21.8148 3.78085C22.2531 2.74678 22.3193 2.39931 21.9144 2.08934C21.7783 1.98508 21.6142 1.93657 21.3978 1.93657C21.019 1.93657 20.5597 2.08154 20.0735 2.23505L20.0701 2.23611C19.9173 2.28435 19.7593 2.3342 19.602 2.3798C19.2527 2.4811 18.8747 2.53036 18.4466 2.53036C17.7824 2.53036 17.0627 2.41296 16.2294 2.27705L16.2289 2.27697L16.2289 2.27696C15.0929 2.09166 13.6793 1.86105 11.8999 1.86105C10.1203 1.86105 8.70669 2.09166 7.57083 2.27702C6.73727 2.41302 6.01748 2.53041 5.35318 2.53041C4.92503 2.53041 4.54712 2.48116 4.19778 2.37985C4.04175 2.33463 3.88514 2.28522 3.73343 2.23735L3.72628 2.2351C3.24005 2.08159 2.78078 1.93662 2.40194 1.93662C2.1856 1.93662 2.02148 1.98519 1.8853 2.08939C1.48048 2.39931 1.54673 2.74683 1.985 3.7809C2.07864 4.00175 2.17542 4.23009 2.26018 4.46708C2.64373 5.53907 2.70836 6.8048 2.65488 8.17336H4.30847C4.60736 8.17336 4.84974 8.40945 4.84974 8.7007C4.84974 8.99195 4.60736 9.22805 4.30847 9.22805H2.59496C2.56319 9.67544 2.52476 10.1307 2.48579 10.5913C2.38332 11.8011 2.27745 13.0521 2.27745 14.3064C2.27745 15.5607 2.38332 16.8117 2.48579 18.0216C2.67918 20.3062 2.86181 22.4642 2.26013 24.1458C2.17565 24.382 2.07917 24.6096 1.98587 24.8298L1.98495 24.832C1.54668 25.866 1.48043 26.2135 1.88524 26.5234C2.02137 26.6276 2.18554 26.6762 2.40189 26.6762C2.78067 26.6762 3.24 26.5312 3.72622 26.3777L3.73162 26.376C3.88388 26.328 4.04114 26.2784 4.19772 26.233C4.54706 26.1317 4.92503 26.0824 5.35313 26.0824C6.01743 26.0824 6.73732 26.1998 7.57083 26.3358L7.57165 26.3359C8.70747 26.5212 10.1209 26.7517 11.8999 26.7517C13.6795 26.7517 15.0931 26.5211 16.2289 26.3357L16.2299 26.3355C17.063 26.1997 17.7825 26.0823 18.4465 26.0823C18.8746 26.0823 19.2526 26.1316 19.6019 26.2329C19.7593 26.2785 19.9173 26.3284 20.0703 26.3767L20.0735 26.3777L20.0739 26.3778C20.56 26.5312 21.0191 26.6761 21.3977 26.6761C21.614 26.6761 21.7782 26.6276 21.9143 26.5234C22.3193 26.2134 22.253 25.866 21.8148 24.8319L21.8135 24.8289C21.7203 24.609 21.624 24.3816 21.5396 24.1458C21.156 23.0737 21.0914 21.8079 21.1449 20.4392H19.4912C19.1923 20.4392 18.95 20.2031 18.95 19.9119C18.95 19.6206 19.1923 19.3845 19.4912 19.3845H21.2048C21.2366 18.9372 21.275 18.482 21.314 18.0215C21.4164 16.8117 21.5223 15.5607 21.5223 14.3064Z" fill="black"/>
<path d="M6.22286 7.80637H6.21086C5.92887 7.80637 5.7002 8.03022 5.7002 8.30637C5.7002 8.58252 5.92887 8.80637 6.21086 8.80637H6.22286C6.50485 8.80637 6.73353 8.58252 6.73353 8.30637C6.73353 8.03022 6.50485 7.80637 6.22286 7.80637Z" fill="black"/>
<path d="M17.5891 18.8064H17.577C17.2951 18.8064 17.0664 19.0302 17.0664 19.3064C17.0664 19.5825 17.2951 19.8064 17.577 19.8064H17.5891C17.8711 19.8064 18.0997 19.5825 18.0997 19.3064C18.0997 19.0302 17.8711 18.8064 17.5891 18.8064Z" fill="black"/>
<path fill-rule="evenodd" clip-rule="evenodd" d="M10.5195 9.85826C11.0657 9.9984 11.5081 10.4171 11.7333 11.007C11.938 11.5436 11.9547 12.1824 11.7802 12.8056C11.4505 13.9836 10.5383 14.8064 9.56198 14.8064C9.42221 14.8064 9.28327 14.7889 9.1491 14.7545C8.05788 14.4746 7.50412 13.18 7.88832 11.8072C8.21805 10.6291 9.13022 9.80637 10.1066 9.80637C10.2463 9.80637 10.3853 9.82383 10.5195 9.85826ZM9.56198 13.8025C9.98153 13.8025 10.5471 13.3324 10.7673 12.5457C10.8847 12.1263 10.8778 11.691 10.7483 11.3514C10.6859 11.1878 10.5378 10.9022 10.2481 10.8279C10.2024 10.8162 10.1548 10.8102 10.1066 10.8102C9.68703 10.8102 9.12142 11.2803 8.90121 12.067C8.65736 12.9383 8.97917 13.6717 9.42048 13.7849C9.46625 13.7965 9.5138 13.8025 9.56198 13.8025Z" fill="black"/>
<path fill-rule="evenodd" clip-rule="evenodd" d="M5.7002 17.8064C5.7002 16.6849 7.06187 15.8064 8.80013 15.8064C10.5385 15.8064 11.9002 16.6849 11.9002 17.8064C11.9002 18.9279 10.5385 19.8064 8.80013 19.8064C7.06187 19.8064 5.7002 18.9279 5.7002 17.8064ZM6.92804 17.8063C6.92804 18.2599 7.69685 18.7653 8.80013 18.7653C9.90341 18.7653 10.6724 18.2599 10.6724 17.8063C10.6724 17.3527 9.90347 16.8473 8.80013 16.8473C7.69685 16.8473 6.92804 17.3527 6.92804 17.8063Z" fill="black"/>
<path fill-rule="evenodd" clip-rule="evenodd" d="M15.7601 11.8064C16.7364 11.8064 17.6486 12.7937 17.9784 14.2073C18.3626 15.8547 17.8088 17.4082 16.7177 17.7441C16.5835 17.7854 16.4446 17.8064 16.3049 17.8064H16.3047C15.3284 17.8062 14.4162 16.8189 14.0865 15.4053C13.912 14.6576 13.9288 13.8911 14.1335 13.2471C14.3586 12.5392 14.8009 12.0368 15.3472 11.8686C15.4814 11.8273 15.6203 11.8064 15.7601 11.8064ZM16.3049 16.6018C16.353 16.6018 16.4005 16.5946 16.4462 16.5806C16.8876 16.4447 17.2094 15.5647 16.9655 14.5191C16.7453 13.5751 16.1797 13.011 15.7601 13.011C15.7119 13.011 15.6644 13.0181 15.6186 13.0322C15.3289 13.1214 15.1808 13.4641 15.1185 13.6604C14.9889 14.0678 14.982 14.5902 15.0994 15.0936C15.3195 16.0376 15.8851 16.6017 16.3048 16.6018H16.3049Z" fill="black"/>
</svg>
