<svg width="25" height="28" viewBox="0 0 25 28" fill="none" xmlns="http://www.w3.org/2000/svg">
<path fill-rule="evenodd" clip-rule="evenodd" d="M23.3532 17.9427C23.1611 20.1931 22.9797 22.3188 23.5298 23.8436C23.608 24.0604 23.703 24.2828 23.795 24.498L23.795 24.4982C24.2042 25.4559 24.7134 26.6478 23.5523 27.5296C23.2097 27.7898 22.7928 27.9217 22.313 27.9217C21.7383 27.9218 21.1495 27.7374 20.58 27.5591L20.5745 27.5574C20.4147 27.5074 20.2636 27.4601 20.1126 27.4167C19.8536 27.3422 19.5641 27.306 19.2275 27.306C18.6272 27.306 17.9176 27.4207 17.096 27.5537C15.8672 27.7525 14.3378 28 12.3833 28C10.4289 28 8.89954 27.7525 7.67068 27.5537C6.84903 27.4207 6.13942 27.306 5.53909 27.306C5.20239 27.306 4.91289 27.3422 4.654 27.4166C4.50127 27.4605 4.34843 27.5084 4.1867 27.559C3.61721 27.7373 3.0283 27.9217 2.4536 27.9217C1.97396 27.9217 1.55702 27.7898 1.21433 27.5296C0.0533246 26.6478 0.562449 25.4559 0.971566 24.4982L0.971626 24.498C1.06358 24.2829 1.15859 24.0605 1.23685 23.8436C1.78694 22.3187 1.60558 20.193 1.41352 17.9425C1.30453 16.6659 1.19192 15.3457 1.19192 14C1.19192 12.6543 1.30453 11.3341 1.41352 10.0575C1.60558 7.80697 1.78694 5.68127 1.23685 4.1563C1.15859 3.93947 1.06358 3.71705 0.971626 3.50191C0.562442 2.54417 0.0532113 1.35226 1.21433 0.470477C1.55697 0.210273 1.97396 0.0783125 2.45371 0.0783125C3.02853 0.0783125 3.61749 0.262719 4.18699 0.441055L4.18805 0.441388C4.34933 0.49185 4.50172 0.539534 4.65394 0.583352C4.91295 0.657836 5.20245 0.694039 5.53903 0.694039C6.13937 0.694039 6.84892 0.57925 7.67057 0.446305C8.89942 0.247461 10.4288 0 12.3833 0C14.3377 0 15.8671 0.247461 17.096 0.446359L17.0983 0.446735C17.9191 0.579466 18.6278 0.694094 19.2276 0.694094C19.5643 0.694094 19.8537 0.657891 20.1127 0.583406C20.2649 0.539596 20.4172 0.491922 20.5784 0.441469L20.5795 0.441109L20.5803 0.440861C21.1497 0.262602 21.7384 0.0783125 22.313 0.0783125C22.7927 0.0783125 23.2097 0.210273 23.5524 0.470477C24.7135 1.35224 24.2042 2.54417 23.795 3.5019L23.795 3.50197C23.7031 3.71705 23.608 3.93952 23.5298 4.1563C22.9798 5.681 23.1611 7.80616 23.3531 10.0562L23.3532 10.0574L23.3533 10.0584C23.4622 11.3348 23.5748 12.6546 23.5748 14C23.5748 15.3454 23.4622 16.6652 23.3533 17.9416L23.3532 17.9426L23.3532 17.9427ZM22.4431 13.9999C22.4431 12.6992 22.3324 11.4019 22.2253 10.1472C22.0231 7.77793 21.8322 5.54006 22.4612 3.79619C22.5498 3.55042 22.651 3.31352 22.7489 3.08448C23.2071 2.01217 23.2763 1.65184 22.8531 1.33044C22.7108 1.22238 22.5392 1.17206 22.313 1.17206C21.9169 1.17206 21.4367 1.3224 20.9283 1.48159L20.9228 1.48331C20.7637 1.53315 20.5993 1.58462 20.4355 1.63171C20.0703 1.73682 19.6752 1.78784 19.2276 1.78784C18.5333 1.78784 17.781 1.66612 16.9098 1.52518L16.9091 1.52507L16.9091 1.52507C15.7215 1.33289 14.2436 1.09375 12.3833 1.09375C10.5228 1.09375 9.04497 1.3329 7.85748 1.52507C6.98603 1.66611 6.23353 1.78784 5.53903 1.78784C5.09148 1.78784 4.69633 1.73677 4.33111 1.63171C4.16799 1.58481 4.00426 1.53357 3.84565 1.48393L3.83818 1.48159L3.83774 1.48146C3.32958 1.32237 2.84965 1.17212 2.45371 1.17212C2.22753 1.17212 2.0559 1.22243 1.91358 1.33049C1.49036 1.65189 1.55957 2.01223 2.0177 3.08448L2.02009 3.09007C2.11719 3.31742 2.21755 3.55242 2.30545 3.79624C2.70643 4.90788 2.774 6.22048 2.71809 7.63973H4.44684C4.75931 7.63973 5.01271 7.88457 5.01271 8.18661C5.01271 8.48865 4.75931 8.73348 4.44684 8.73348H2.65544C2.62228 9.19751 2.58205 9.66973 2.54131 10.1474C2.43424 11.402 2.32356 12.6993 2.32356 14C2.32356 15.3007 2.43424 16.598 2.54131 17.8527C2.74349 20.222 2.93442 22.4598 2.30539 24.2037C2.21738 24.4478 2.11686 24.6832 2.01963 24.9108L2.01765 24.9155C1.55951 25.9878 1.49031 26.3481 1.91353 26.6695C2.05584 26.7776 2.22742 26.8279 2.45354 26.8279C2.84948 26.8279 3.32963 26.6777 3.83784 26.5185C3.99883 26.4681 4.16531 26.416 4.33106 26.3683C4.69627 26.2633 5.09148 26.2122 5.53903 26.2122C6.23294 26.2122 6.9848 26.3338 7.85531 26.4746L7.85753 26.475C9.04502 26.6672 10.5229 26.9063 12.3832 26.9063C14.2437 26.9063 15.7216 26.6672 16.9091 26.475L16.9111 26.4747C17.7817 26.3338 18.5336 26.2122 19.2275 26.2122C19.6751 26.2122 20.0702 26.2632 20.4355 26.3683C20.5987 26.4152 20.7626 26.4665 20.9214 26.5162L20.9289 26.5186L20.9295 26.5188C21.4374 26.6778 21.9172 26.828 22.3129 26.8279C22.5392 26.8279 22.7107 26.7776 22.8531 26.6695C23.2763 26.3481 23.2071 25.9878 22.7489 24.9154C22.651 24.6863 22.5497 24.4495 22.4611 24.2036C22.0601 23.092 21.9925 21.7792 22.0485 20.3599H20.3197C20.0072 20.3599 19.7539 20.1151 19.7539 19.8131C19.7539 19.511 20.0072 19.2662 20.3197 19.2662H22.1111C22.1444 18.8023 22.1845 18.3302 22.2253 17.8527C22.3324 16.598 22.4431 15.3007 22.4431 13.9999Z" fill="black"/>
<path d="M6.71238 7.46411H6.68827C6.12432 7.46411 5.66699 7.91181 5.66699 8.46411C5.66699 9.01641 6.12432 9.46411 6.68827 9.46411H6.71238C7.27633 9.46411 7.73366 9.01641 7.73366 8.46411C7.73366 7.91181 7.27633 7.46411 6.71238 7.46411Z" fill="black"/>
<path d="M18.0785 18.4641H18.0545C17.4906 18.4641 17.0332 18.9118 17.0332 19.4641C17.0332 20.0164 17.4906 20.4641 18.0545 20.4641H18.0785C18.6425 20.4641 19.0999 20.0164 19.0999 19.4641C19.0999 18.9118 18.6425 18.4641 18.0785 18.4641Z" fill="black"/>
<path fill-rule="evenodd" clip-rule="evenodd" d="M15.7786 12.9878C16.4778 12.9878 17.1677 13.1628 17.7737 13.494C17.9552 13.5932 18.067 13.7769 18.0669 13.9757C18.0656 15.3218 17.3023 16.5756 16.0747 17.2479C15.4694 17.5794 14.7818 17.7546 14.0863 17.7546C13.7071 17.7546 13.3308 17.7027 12.969 17.6027V19.4446C12.969 19.7514 12.7069 20 12.3835 20C12.0602 20 11.798 19.7514 11.798 19.4446V17.6027C11.4363 17.7027 11.06 17.7546 10.6808 17.7546H10.6807C9.98514 17.7546 9.29762 17.5794 8.69235 17.2479C7.46477 16.5755 6.70137 15.3217 6.7002 13.9757C6.70002 13.7769 6.81185 13.5932 6.9934 13.494C7.59932 13.1628 8.28924 12.9878 8.98848 12.9878C9.39861 12.9878 9.80587 13.0492 10.1952 13.1672C10.1323 12.9006 10.099 12.626 10.099 12.3472C10.099 11.0027 10.862 9.74869 12.0903 9.07464C12.2717 8.97512 12.4953 8.97512 12.6766 9.07464C13.905 9.74858 14.668 11.0026 14.668 12.3472C14.668 12.6259 14.6347 12.9006 14.5718 13.1672C14.9612 13.0492 15.3684 12.9878 15.7786 12.9878ZM9.27777 16.2859C9.70528 16.52 10.1904 16.6438 10.6806 16.6438C11.0573 16.6438 11.4299 16.572 11.7755 16.4342C11.6654 15.6135 11.1559 14.8751 10.3913 14.4564C9.96371 14.2223 9.47865 14.0985 8.98836 14.0985C8.61184 14.0985 8.23901 14.1703 7.89346 14.308C8.00365 15.1289 8.51313 15.8672 9.27777 16.2859ZM12.3834 14.4733C11.6892 13.9723 11.2699 13.1847 11.2699 12.3473C11.27 11.5099 11.6892 10.7222 12.3834 10.2213C13.0777 10.7222 13.497 11.5099 13.497 12.3473C13.497 13.1847 13.0778 13.9724 12.3834 14.4733ZM14.0862 16.6438C14.5765 16.6438 15.0616 16.52 15.4892 16.2859C16.2537 15.8672 16.7632 15.1289 16.8735 14.3081C16.5279 14.1703 16.1552 14.0985 15.7786 14.0985C15.2884 14.0985 14.8033 14.2223 14.3757 14.4565C13.6111 14.8752 13.1016 15.6135 12.9913 16.4343C13.337 16.572 13.7097 16.6438 14.0862 16.6438Z" fill="black"/>
</svg>
