<svg width="16" height="16" viewBox="0 0 16 16" fill="none" xmlns="http://www.w3.org/2000/svg">
<path d="M0.25 8C0.25 12.2812 3.71875 15.75 8 15.75C12.2812 15.75 15.75 12.2812 15.75 8C15.75 3.71875 12.2812 0.25 8 0.25C3.71875 0.25 0.25 3.71875 0.25 8ZM14.25 8C14.25 11.4688 11.4375 14.25 8 14.25C4.53125 14.25 1.75 11.4688 1.75 8C1.75 4.5625 4.53125 1.75 8 1.75C11.4375 1.75 14.25 4.5625 14.25 8ZM12 7.375C12 7.1875 11.8125 7 11.625 7H8V4.90625C8 4.59375 7.59375 4.40625 7.34375 4.65625L4.25 7.75C4.09375 7.90625 4.09375 8.125 4.25 8.28125L7.34375 11.375C7.59375 11.5938 8 11.4375 8 11.0938V9H11.625C11.8125 9 12 8.84375 12 8.625V7.375Z" fill="#7EB23D"/>
</svg>
